# xmcd
#
# Track frame offsets: 
#        150
#        7855
#        16115
#        32760
#        43372
#        56242
#        68527
#        80925
#        90522
#        104475
#        116145
#        125447
#        134775
#        144865
#        154807
#        163677
#        173212
#        180520
#        190330
#        199137
#        207065
#        216062
#        228075
#        237182
#        248527
#        258097
#        267375
#        278005
#        285305
#        295842
#        306602
#        314747
#
# Disc length: 4345 seconds
#
# Revision: 0
# Processed by: cddbd v1.5.2PL0 Copyright (c) Steve Scherf et al.
# Submitted via: ExactAudioCopy v0.95b3
#
DISCID=d210f720
DTITLE=Dave Clark Five  - The Complete History - Vol. 3 - I Like It Li
DTITLE=ke That-Try Too Hard-Satisfied With You
DYEAR=1900
DGENRE=
TTITLE0=I Like It Like That
TTITLE1=Pumping
TTITLE2=I Need Love
TTITLE3=Maybe It's You
TTITLE4=That's How Long Our Love Will Last
TTITLE5=A Little Bit Of Love
TTITLE6=I'll Be Yours My Love
TTITLE7=Please Love Me
TTITLE8=Goodbye My Friends
TTITLE9=I Am On My Own
TTITLE10=She's A Loving Girl
TTITLE11=You Know You're Lying
TTITLE12=Try Too Hard
TTITLE13=Today
TTITLE14=I Never Will
TTITLE15=Looking In
TTITLE16=Ever Since You've Been Away
TTITLE17=Somebody Find A New Love
TTITLE18=I Really Love You
TTITLE19=It Don't Feel Good
TTITLE20=Scared Of Falling In Love
TTITLE21=I Know
TTITLE22=Satisfied With You
TTITLE23=Go On
TTITLE24=Do You Still Love Me
TTITLE25=I Meant You
TTITLE26=Look Before You Leap
TTITLE27=Please Tell Me Why
TTITLE28=You Never Listen
TTITLE29=I Still Need You
TTITLE30=It'll Only Hurt For A Little While
TTITLE31=Good Lovin'
EXTD=
EXTT0=
EXTT1=
EXTT2=
EXTT3=
EXTT4=
EXTT5=
EXTT6=
EXTT7=
EXTT8=
EXTT9=
EXTT10=
EXTT11=
EXTT12=
EXTT13=
EXTT14=
EXTT15=
EXTT16=
EXTT17=
EXTT18=
EXTT19=
EXTT20=
EXTT21=
EXTT22=
EXTT23=
EXTT24=
EXTT25=
EXTT26=
EXTT27=
EXTT28=
EXTT29=
EXTT30=
EXTT31=
PLAYORDER=
